<?xml version="1.0" encoding="UTF-8"?>
<svg id="Layer_1" data-name="Layer 1" xmlns="http://www.w3.org/2000/svg" viewBox="0 0 1305.67 1133.36">
  <defs>
    <style>
      .cls-1 {
        fill: #014b92;
      }

      .cls-1, .cls-2 {
        stroke-width: 0px;
      }

      .cls-2 {
        fill: #c8002a;
      }
    </style>
  </defs>
  <g>
    <path class="cls-1" d="M.17,900.3v-17.18h34.36v42.33h48.33c20.34,0,35.56,6.85,46.06,20.61,7.89,10.34,12.34,24.11,13.6,41.38h.4v79.08h-34.36v-51.22h-.03v-17.18c0-14.74-2.22-25.17-6.87-31.25-3.59-4.71-9.81-7.06-18.82-7.06h-48.33v106.71H.17v-106.71h-.17v-34.36h.17v-25.15h0Z"/>
    <path class="cls-1" d="M181.19,883.12c9.49,0,17.18,7.69,17.18,17.18s-7.69,17.18-17.18,17.18-17.18-7.69-17.18-17.18,7.69-17.18,17.18-17.18ZM164.01,925.45h34.36v141.07h-34.36v-141.07Z"/>
    <path class="cls-1" d="M221.91,942.63v-17.18h34.36v4.7c12.67-5.35,9.37-4.7,25.68-4.7,17.59,0,29.02,1.73,42.87,16.81,13.86-15.08,25.28-16.81,42.87-16.81,19.07,0,32.36,2.66,46.06,20.61,7.89,10.34,12.35,24.11,13.61,41.38h.4v79.08h-34.36v-51.22h-.03v-17.18c0-14.74-2.22-25.17-6.87-31.25-3.59-4.71-9.81-7.06-18.82-7.06s-15.22,2.35-18.82,7.06c-4.57,5.99-6.8,16.18-6.87,30.56v69.09h-34.36v-51.23h-.03v-17.18c0-14.74-2.22-25.17-6.87-31.25-3.59-4.71-9.81-7.06-18.82-7.06s-15.22,2.35-18.82,7.06c-4.57,5.99-6.8,16.18-6.87,30.56v69.09h-34.36v-123.89h0Z"/>
    <path class="cls-1" d="M551.87,966.86h34.36v99.65h-34.36v-5.93c-7.89,3.8-16.73,5.93-26.05,5.93h-22.45c-29.34,0-47.9-19.04-55.83-43.41-2.82-8.67-4.23-17.95-4.23-27.13s1.41-18.46,4.23-27.12c7.94-24.37,26.49-43.41,55.83-43.41h39.63v34.36h-39.63c-11.83,0-19.63,8.62-23.22,19.65-1.66,5.1-2.49,10.76-2.49,16.52s.83,11.43,2.49,16.52c3.59,11.03,11.39,19.65,23.22,19.65h22.45c7.15,0,13.66-2.94,18.38-7.66,4.73-4.73,7.66-11.23,7.66-18.38v-39.25ZM586.22,940.16c0,8.13-6.59,14.72-14.72,14.72s-14.71-6.59-14.71-14.72,6.58-14.71,14.71-14.71,14.72,6.58,14.72,14.71Z"/>
    <path class="cls-1" d="M607.31,883.12h34.36v114.26c0,12.24,1.87,20.72,5.35,26.3,2.84,4.55,7.29,7.49,13.08,9.34l16.3,5.23-10.47,32.61-16.3-5.23c-13.46-4.32-24.2-11.76-31.74-23.84-6.89-11.04-10.59-25.46-10.59-44.42v-114.26Z"/>
    <path class="cls-1" d="M688.79,925.45h34.36v4.7c6.11-2.58,12.99-4.09,20.65-4.55v-.15h34.36v.26c17.03,1.37,30.07,8.14,39.38,20.35,7.89,10.34,12.34,24.11,13.6,41.38h.4v79.08h-34.36v-51.22h-.03v-17.18c0-14.74-2.22-25.17-6.87-31.25-3.59-4.71-9.81-7.06-18.82-7.06h-22.65c-9.01,0-15.22,2.35-18.82,7.06-4.57,5.99-6.8,16.18-6.86,30.56v69.09h-34.36v-51.23h0v-17.7s0-72.14,0-72.14Z"/>
    <path class="cls-1" d="M886.89,1133.36h-34.36v-207.91h82.86c29.34,0,47.9,19.04,55.83,43.41,2.82,8.67,4.23,17.95,4.23,27.12s-1.41,18.45-4.23,27.12c-7.94,24.37-26.5,43.41-55.83,43.41h-29.15v-34.36h29.15c11.84,0,19.63-8.62,23.22-19.66,1.66-5.1,2.49-10.76,2.49-16.52s-.83-11.43-2.49-16.52c-3.59-11.03-11.39-19.65-23.22-19.65h-48.5v173.56Z"/>
    <path class="cls-1" d="M1013.41,925.45h34.36v4.7c6.11-2.58,12.99-4.09,20.65-4.55v-.15h34.36v.26c17.04,1.37,30.07,8.14,39.38,20.35,7.89,10.34,12.35,24.11,13.61,41.38h.4v79.08h-34.36v-51.22h-.03v-17.18c0-14.74-2.22-25.17-6.87-31.25-3.59-4.71-9.81-7.06-18.81-7.06h-22.66c-9.01,0-15.22,2.35-18.82,7.06-4.57,5.99-6.8,16.18-6.86,30.56v69.09h-34.36v-51.23h0v-17.7s0-72.14,0-72.14Z"/>
    <path class="cls-1" d="M1305.67,1032.16v34.36h-73.96c-29.34,0-47.9-19.04-55.83-43.41-2.82-8.67-4.23-17.95-4.23-27.12s1.41-18.46,4.23-27.13c7.94-24.37,26.49-43.41,55.83-43.41h73.96v34.36h-73.96c-11.6,0-19.32,8.28-23,19h60.26v34.36h-60.26c3.68,10.72,11.4,19,23,19h73.96Z"/>
  </g>
  <g>
    <path class="cls-2" d="M531.83,174.07c0-47.64,17.03-88.5,51.12-122.59S658.11.34,706.14.34v659.5c0,47.66-17.05,88.52-51.14,122.61s-75.14,51.12-123.17,51.12v-343.41l-330.05-.58v170.25c0,47.66-16.95,88.52-50.84,122.61-33.91,34.09-74.86,51.12-122.89,51.12V174.07c0-47.64,16.94-88.5,50.84-122.59C112.78,17.39,153.75.34,201.78.34v343.98h330.05v-170.25Z"/>
    <path class="cls-2" d="M1272.24,638.58c0,53.84-18.59,99.36-55.78,136.55s-83.3,56.56-138.3,58.11l-371.3-567.11v392.8c0,48.03-16.95,89.09-50.84,123.19-33.91,34.09-74.86,51.12-122.89,51.12V195.81c0-54.22,18.78-100.03,56.36-137.41C627.06,21.03,650.73,1.9,706.14.34l392.36,566.19V173.73c0-47.64,16.94-88.5,50.84-122.59,33.89-34.09,74.86-51.14,122.91-51.14v638.58Z"/>
  </g>
</svg>